<mxfile host="app.diagrams.net" agent="Mozilla/5.0 (Windows NT 10.0; Win64; x64) AppleWebKit/537.36 (KHTML, like Gecko) Chrome/135.0.0.0 Safari/537.36" version="26.2.14">
  <diagram name="Página-1" id="5zvCUDVExmnDYqEcgGTV">
    <mxGraphModel dx="731" dy="801" grid="1" gridSize="10" guides="1" tooltips="1" connect="1" arrows="1" fold="1" page="1" pageScale="1" pageWidth="827" pageHeight="1169" math="0" shadow="0">
      <root>
        <mxCell id="0" />
        <mxCell id="1" parent="0" />
        <mxCell id="52nS1y-p0WzkzDX7R_8c-1" value="Cliente" style="rounded=0;whiteSpace=wrap;html=1;" vertex="1" parent="1">
          <mxGeometry x="155" y="272.5" width="80" height="30" as="geometry" />
        </mxCell>
        <mxCell id="52nS1y-p0WzkzDX7R_8c-2" value="&lt;u&gt;Numero&lt;/u&gt;" style="ellipse;whiteSpace=wrap;html=1;" vertex="1" parent="1">
          <mxGeometry x="70" y="237.5" width="70" height="30" as="geometry" />
        </mxCell>
        <mxCell id="52nS1y-p0WzkzDX7R_8c-4" value="saldo" style="ellipse;whiteSpace=wrap;html=1;" vertex="1" parent="1">
          <mxGeometry x="70" y="330" width="70" height="20" as="geometry" />
        </mxCell>
        <mxCell id="52nS1y-p0WzkzDX7R_8c-6" value="Límite de crédito" style="ellipse;whiteSpace=wrap;html=1;" vertex="1" parent="1">
          <mxGeometry x="50" y="282.5" width="90" height="30" as="geometry" />
        </mxCell>
        <mxCell id="52nS1y-p0WzkzDX7R_8c-7" value="Descuento" style="ellipse;whiteSpace=wrap;html=1;" vertex="1" parent="1">
          <mxGeometry x="110" y="350" width="90" height="30" as="geometry" />
        </mxCell>
        <mxCell id="52nS1y-p0WzkzDX7R_8c-8" value="Artículo" style="rounded=0;whiteSpace=wrap;html=1;" vertex="1" parent="1">
          <mxGeometry x="504" y="430" width="80" height="30" as="geometry" />
        </mxCell>
        <mxCell id="52nS1y-p0WzkzDX7R_8c-9" value="&lt;u&gt;Numero&lt;/u&gt;" style="ellipse;whiteSpace=wrap;html=1;" vertex="1" parent="1">
          <mxGeometry x="624" y="430" width="70" height="30" as="geometry" />
        </mxCell>
        <mxCell id="52nS1y-p0WzkzDX7R_8c-10" value="direccion_envio" style="ellipse;whiteSpace=wrap;html=1;" vertex="1" parent="1">
          <mxGeometry x="584" y="386.25" width="100" height="30" as="geometry" />
        </mxCell>
        <mxCell id="52nS1y-p0WzkzDX7R_8c-12" value="Descripcion" style="ellipse;whiteSpace=wrap;html=1;" vertex="1" parent="1">
          <mxGeometry x="579" y="470" width="90" height="30" as="geometry" />
        </mxCell>
        <mxCell id="52nS1y-p0WzkzDX7R_8c-14" value="Pedido" style="rounded=0;whiteSpace=wrap;html=1;" vertex="1" parent="1">
          <mxGeometry x="504" y="267.5" width="80" height="30" as="geometry" />
        </mxCell>
        <mxCell id="52nS1y-p0WzkzDX7R_8c-15" value="n_cliente" style="ellipse;whiteSpace=wrap;html=1;" vertex="1" parent="1">
          <mxGeometry x="394" y="177.5" width="70" height="30" as="geometry" />
        </mxCell>
        <mxCell id="52nS1y-p0WzkzDX7R_8c-20" value="&lt;u&gt;id&lt;/u&gt;" style="ellipse;whiteSpace=wrap;html=1;" vertex="1" parent="1">
          <mxGeometry x="180" y="172.5" width="30" height="20" as="geometry" />
        </mxCell>
        <mxCell id="52nS1y-p0WzkzDX7R_8c-21" value="N°" style="ellipse;whiteSpace=wrap;html=1;" vertex="1" parent="1">
          <mxGeometry x="210" y="188.75" width="40" height="20" as="geometry" />
        </mxCell>
        <mxCell id="52nS1y-p0WzkzDX7R_8c-22" value="calle" style="ellipse;whiteSpace=wrap;html=1;" vertex="1" parent="1">
          <mxGeometry x="230" y="162.5" width="40" height="20" as="geometry" />
        </mxCell>
        <mxCell id="52nS1y-p0WzkzDX7R_8c-23" value="comuna" style="ellipse;whiteSpace=wrap;html=1;" vertex="1" parent="1">
          <mxGeometry x="270" y="202.5" width="60" height="20" as="geometry" />
        </mxCell>
        <mxCell id="52nS1y-p0WzkzDX7R_8c-24" value="ciudad" style="ellipse;whiteSpace=wrap;html=1;" vertex="1" parent="1">
          <mxGeometry x="140" y="198.75" width="60" height="20" as="geometry" />
        </mxCell>
        <mxCell id="52nS1y-p0WzkzDX7R_8c-33" value="direccion_envio" style="ellipse;shape=doubleEllipse;margin=3;whiteSpace=wrap;html=1;align=center;" vertex="1" parent="1">
          <mxGeometry x="190" y="222.5" width="100" height="40" as="geometry" />
        </mxCell>
        <mxCell id="52nS1y-p0WzkzDX7R_8c-35" value="Fabrica" style="rounded=0;whiteSpace=wrap;html=1;" vertex="1" parent="1">
          <mxGeometry x="499" y="600" width="80" height="30" as="geometry" />
        </mxCell>
        <mxCell id="52nS1y-p0WzkzDX7R_8c-37" value="es distribuido" style="strokeWidth=2;html=1;shape=mxgraph.flowchart.decision;whiteSpace=wrap;" vertex="1" parent="1">
          <mxGeometry x="496.5" y="520" width="95" height="60" as="geometry" />
        </mxCell>
        <mxCell id="52nS1y-p0WzkzDX7R_8c-38" value="(1:N)" style="text;html=1;align=center;verticalAlign=middle;resizable=0;points=[];autosize=1;strokeColor=none;fillColor=none;" vertex="1" parent="1">
          <mxGeometry x="594" y="535" width="50" height="30" as="geometry" />
        </mxCell>
        <mxCell id="52nS1y-p0WzkzDX7R_8c-42" value="direccion_envio" style="ellipse;whiteSpace=wrap;html=1;" vertex="1" parent="1">
          <mxGeometry x="451" y="146.25" width="100" height="35" as="geometry" />
        </mxCell>
        <mxCell id="52nS1y-p0WzkzDX7R_8c-44" value="n_articulo" style="ellipse;whiteSpace=wrap;html=1;" vertex="1" parent="1">
          <mxGeometry x="654" y="218.75" width="80" height="27.5" as="geometry" />
        </mxCell>
        <mxCell id="52nS1y-p0WzkzDX7R_8c-45" value="cantidad" style="ellipse;whiteSpace=wrap;html=1;" vertex="1" parent="1">
          <mxGeometry x="734" y="240" width="80" height="27.5" as="geometry" />
        </mxCell>
        <mxCell id="52nS1y-p0WzkzDX7R_8c-46" value="&lt;u&gt;id&lt;/u&gt;" style="ellipse;whiteSpace=wrap;html=1;" vertex="1" parent="1">
          <mxGeometry x="594" y="320" width="40" height="20" as="geometry" />
        </mxCell>
        <mxCell id="52nS1y-p0WzkzDX7R_8c-50" value="&lt;u&gt;Numero&lt;/u&gt;" style="ellipse;whiteSpace=wrap;html=1;" vertex="1" parent="1">
          <mxGeometry x="429" y="650" width="70" height="30" as="geometry" />
        </mxCell>
        <mxCell id="52nS1y-p0WzkzDX7R_8c-51" value="telefono" style="ellipse;whiteSpace=wrap;html=1;" vertex="1" parent="1">
          <mxGeometry x="509" y="660" width="60" height="20" as="geometry" />
        </mxCell>
        <mxCell id="52nS1y-p0WzkzDX7R_8c-52" value="cabecera" style="ellipse;whiteSpace=wrap;html=1;" vertex="1" parent="1">
          <mxGeometry x="494" y="195" width="100" height="35" as="geometry" />
        </mxCell>
        <mxCell id="52nS1y-p0WzkzDX7R_8c-54" value="fecha" style="ellipse;whiteSpace=wrap;html=1;" vertex="1" parent="1">
          <mxGeometry x="564" y="150" width="80" height="27.5" as="geometry" />
        </mxCell>
        <mxCell id="52nS1y-p0WzkzDX7R_8c-55" value="cuerpo_pedido" style="ellipse;whiteSpace=wrap;html=1;" vertex="1" parent="1">
          <mxGeometry x="634" y="261.25" width="100" height="38.75" as="geometry" />
        </mxCell>
        <mxCell id="52nS1y-p0WzkzDX7R_8c-56" style="edgeStyle=orthogonalEdgeStyle;rounded=0;orthogonalLoop=1;jettySize=auto;html=1;exitX=0.5;exitY=1;exitDx=0;exitDy=0;" edge="1" parent="1" source="52nS1y-p0WzkzDX7R_8c-46" target="52nS1y-p0WzkzDX7R_8c-46">
          <mxGeometry relative="1" as="geometry" />
        </mxCell>
        <mxCell id="52nS1y-p0WzkzDX7R_8c-57" value="dia" style="ellipse;whiteSpace=wrap;html=1;" vertex="1" parent="1">
          <mxGeometry x="554" y="120" width="40" height="17.5" as="geometry" />
        </mxCell>
        <mxCell id="52nS1y-p0WzkzDX7R_8c-58" value="mes" style="ellipse;whiteSpace=wrap;html=1;" vertex="1" parent="1">
          <mxGeometry x="604" y="120" width="40" height="17.5" as="geometry" />
        </mxCell>
        <mxCell id="52nS1y-p0WzkzDX7R_8c-59" value="año" style="ellipse;whiteSpace=wrap;html=1;" vertex="1" parent="1">
          <mxGeometry x="644" y="127.5" width="40" height="17.5" as="geometry" />
        </mxCell>
        <mxCell id="52nS1y-p0WzkzDX7R_8c-60" value="hora" style="ellipse;whiteSpace=wrap;html=1;" vertex="1" parent="1">
          <mxGeometry x="654" y="155" width="40" height="17.5" as="geometry" />
        </mxCell>
        <mxCell id="52nS1y-p0WzkzDX7R_8c-61" value="n_total_articulos" style="ellipse;whiteSpace=wrap;html=1;align=center;dashed=1;" vertex="1" parent="1">
          <mxGeometry x="379" y="590" width="100" height="40" as="geometry" />
        </mxCell>
        <mxCell id="52nS1y-p0WzkzDX7R_8c-67" value="" style="endArrow=none;html=1;rounded=0;exitX=1;exitY=0.5;exitDx=0;exitDy=0;entryX=0;entryY=0.5;entryDx=0;entryDy=0;entryPerimeter=0;" edge="1" parent="1" source="52nS1y-p0WzkzDX7R_8c-1" target="52nS1y-p0WzkzDX7R_8c-68">
          <mxGeometry relative="1" as="geometry">
            <mxPoint x="650" y="270" as="sourcePoint" />
            <mxPoint x="810" y="270" as="targetPoint" />
          </mxGeometry>
        </mxCell>
        <mxCell id="52nS1y-p0WzkzDX7R_8c-68" value="realiza" style="strokeWidth=2;html=1;shape=mxgraph.flowchart.decision;whiteSpace=wrap;" vertex="1" parent="1">
          <mxGeometry x="342" y="261.25" width="109" height="52.5" as="geometry" />
        </mxCell>
        <mxCell id="52nS1y-p0WzkzDX7R_8c-70" value="" style="endArrow=none;html=1;rounded=0;exitX=1;exitY=0.5;exitDx=0;exitDy=0;exitPerimeter=0;entryX=-0.007;entryY=0.647;entryDx=0;entryDy=0;entryPerimeter=0;" edge="1" parent="1" source="52nS1y-p0WzkzDX7R_8c-68" target="52nS1y-p0WzkzDX7R_8c-14">
          <mxGeometry relative="1" as="geometry">
            <mxPoint x="457" y="287.26" as="sourcePoint" />
            <mxPoint x="504" y="290" as="targetPoint" />
          </mxGeometry>
        </mxCell>
        <mxCell id="52nS1y-p0WzkzDX7R_8c-71" value="" style="endArrow=none;html=1;rounded=0;exitX=0.913;exitY=0.755;exitDx=0;exitDy=0;entryX=0;entryY=0;entryDx=0;entryDy=0;exitPerimeter=0;" edge="1" parent="1" source="52nS1y-p0WzkzDX7R_8c-2" target="52nS1y-p0WzkzDX7R_8c-1">
          <mxGeometry relative="1" as="geometry">
            <mxPoint x="245" y="298" as="sourcePoint" />
            <mxPoint x="352" y="298" as="targetPoint" />
          </mxGeometry>
        </mxCell>
        <mxCell id="52nS1y-p0WzkzDX7R_8c-72" value="" style="endArrow=none;html=1;rounded=0;exitX=0.998;exitY=0.425;exitDx=0;exitDy=0;entryX=-0.007;entryY=0.569;entryDx=0;entryDy=0;exitPerimeter=0;entryPerimeter=0;" edge="1" parent="1" source="52nS1y-p0WzkzDX7R_8c-6" target="52nS1y-p0WzkzDX7R_8c-1">
          <mxGeometry relative="1" as="geometry">
            <mxPoint x="144" y="270" as="sourcePoint" />
            <mxPoint x="165" y="283" as="targetPoint" />
          </mxGeometry>
        </mxCell>
        <mxCell id="52nS1y-p0WzkzDX7R_8c-73" value="" style="endArrow=none;html=1;rounded=0;exitX=0.994;exitY=0.321;exitDx=0;exitDy=0;entryX=0.093;entryY=0.982;entryDx=0;entryDy=0;exitPerimeter=0;entryPerimeter=0;" edge="1" parent="1" source="52nS1y-p0WzkzDX7R_8c-4" target="52nS1y-p0WzkzDX7R_8c-1">
          <mxGeometry relative="1" as="geometry">
            <mxPoint x="150" y="305" as="sourcePoint" />
            <mxPoint x="164" y="300" as="targetPoint" />
          </mxGeometry>
        </mxCell>
        <mxCell id="52nS1y-p0WzkzDX7R_8c-74" value="" style="endArrow=none;html=1;rounded=0;exitX=0.218;exitY=0.892;exitDx=0;exitDy=0;entryX=0.615;entryY=-0.019;entryDx=0;entryDy=0;exitPerimeter=0;entryPerimeter=0;" edge="1" parent="1" source="52nS1y-p0WzkzDX7R_8c-33" target="52nS1y-p0WzkzDX7R_8c-1">
          <mxGeometry relative="1" as="geometry">
            <mxPoint x="144" y="270" as="sourcePoint" />
            <mxPoint x="165" y="283" as="targetPoint" />
          </mxGeometry>
        </mxCell>
        <mxCell id="52nS1y-p0WzkzDX7R_8c-75" value="" style="endArrow=none;html=1;rounded=0;entryX=0.208;entryY=0.113;entryDx=0;entryDy=0;entryPerimeter=0;exitX=0.556;exitY=1.006;exitDx=0;exitDy=0;exitPerimeter=0;" edge="1" parent="1" target="52nS1y-p0WzkzDX7R_8c-33">
          <mxGeometry relative="1" as="geometry">
            <mxPoint x="177.02999999999994" y="218.74999999999997" as="sourcePoint" />
            <mxPoint x="212.96999999999994" y="227.77999999999997" as="targetPoint" />
          </mxGeometry>
        </mxCell>
        <mxCell id="52nS1y-p0WzkzDX7R_8c-76" value="" style="endArrow=none;html=1;rounded=0;exitX=0.383;exitY=0.97;exitDx=0;exitDy=0;entryX=0.462;entryY=0;entryDx=0;entryDy=0;exitPerimeter=0;entryPerimeter=0;" edge="1" parent="1" source="52nS1y-p0WzkzDX7R_8c-21" target="52nS1y-p0WzkzDX7R_8c-33">
          <mxGeometry relative="1" as="geometry">
            <mxPoint x="232" y="278" as="sourcePoint" />
            <mxPoint x="224" y="292" as="targetPoint" />
          </mxGeometry>
        </mxCell>
        <mxCell id="52nS1y-p0WzkzDX7R_8c-77" value="" style="endArrow=none;html=1;rounded=0;exitX=0.5;exitY=1;exitDx=0;exitDy=0;entryX=0.285;entryY=0.051;entryDx=0;entryDy=0;entryPerimeter=0;" edge="1" parent="1" source="52nS1y-p0WzkzDX7R_8c-20" target="52nS1y-p0WzkzDX7R_8c-33">
          <mxGeometry relative="1" as="geometry">
            <mxPoint x="245" y="222" as="sourcePoint" />
            <mxPoint x="246" y="233" as="targetPoint" />
          </mxGeometry>
        </mxCell>
        <mxCell id="52nS1y-p0WzkzDX7R_8c-78" value="" style="endArrow=none;html=1;rounded=0;exitX=0.662;exitY=0.986;exitDx=0;exitDy=0;exitPerimeter=0;entryX=0.585;entryY=0.003;entryDx=0;entryDy=0;entryPerimeter=0;" edge="1" parent="1" source="52nS1y-p0WzkzDX7R_8c-22" target="52nS1y-p0WzkzDX7R_8c-33">
          <mxGeometry relative="1" as="geometry">
            <mxPoint x="235" y="212" as="sourcePoint" />
            <mxPoint x="250" y="220" as="targetPoint" />
          </mxGeometry>
        </mxCell>
        <mxCell id="52nS1y-p0WzkzDX7R_8c-79" value="" style="endArrow=none;html=1;rounded=0;exitX=0.234;exitY=0.922;exitDx=0;exitDy=0;entryX=1;entryY=0;entryDx=0;entryDy=0;exitPerimeter=0;" edge="1" parent="1" source="52nS1y-p0WzkzDX7R_8c-23" target="52nS1y-p0WzkzDX7R_8c-33">
          <mxGeometry relative="1" as="geometry">
            <mxPoint x="245" y="222" as="sourcePoint" />
            <mxPoint x="246" y="233" as="targetPoint" />
          </mxGeometry>
        </mxCell>
        <mxCell id="52nS1y-p0WzkzDX7R_8c-81" value="" style="endArrow=none;html=1;rounded=0;exitX=0.5;exitY=0;exitDx=0;exitDy=0;entryX=0.5;entryY=1;entryDx=0;entryDy=0;" edge="1" parent="1" source="52nS1y-p0WzkzDX7R_8c-14" target="52nS1y-p0WzkzDX7R_8c-52">
          <mxGeometry width="50" height="50" relative="1" as="geometry">
            <mxPoint x="570" y="250" as="sourcePoint" />
            <mxPoint x="620" y="200" as="targetPoint" />
          </mxGeometry>
        </mxCell>
        <mxCell id="52nS1y-p0WzkzDX7R_8c-82" value="" style="endArrow=none;html=1;rounded=0;exitX=0;exitY=0.5;exitDx=0;exitDy=0;entryX=0.951;entryY=0.735;entryDx=0;entryDy=0;entryPerimeter=0;" edge="1" parent="1" source="52nS1y-p0WzkzDX7R_8c-52" target="52nS1y-p0WzkzDX7R_8c-15">
          <mxGeometry width="50" height="50" relative="1" as="geometry">
            <mxPoint x="614" y="278" as="sourcePoint" />
            <mxPoint x="554" y="240" as="targetPoint" />
          </mxGeometry>
        </mxCell>
        <mxCell id="52nS1y-p0WzkzDX7R_8c-83" value="" style="endArrow=none;html=1;rounded=0;exitX=0.351;exitY=0.015;exitDx=0;exitDy=0;entryX=0.597;entryY=0.976;entryDx=0;entryDy=0;entryPerimeter=0;exitPerimeter=0;" edge="1" parent="1" source="52nS1y-p0WzkzDX7R_8c-52" target="52nS1y-p0WzkzDX7R_8c-42">
          <mxGeometry width="50" height="50" relative="1" as="geometry">
            <mxPoint x="504" y="223" as="sourcePoint" />
            <mxPoint x="471" y="210" as="targetPoint" />
          </mxGeometry>
        </mxCell>
        <mxCell id="52nS1y-p0WzkzDX7R_8c-84" value="" style="endArrow=none;html=1;rounded=0;exitX=0.827;exitY=0.119;exitDx=0;exitDy=0;exitPerimeter=0;entryX=0.314;entryY=0.944;entryDx=0;entryDy=0;entryPerimeter=0;" edge="1" parent="1" source="52nS1y-p0WzkzDX7R_8c-52" target="52nS1y-p0WzkzDX7R_8c-54">
          <mxGeometry width="50" height="50" relative="1" as="geometry">
            <mxPoint x="538" y="207" as="sourcePoint" />
            <mxPoint x="590" y="180" as="targetPoint" />
          </mxGeometry>
        </mxCell>
        <mxCell id="52nS1y-p0WzkzDX7R_8c-85" value="" style="endArrow=none;html=1;rounded=0;exitX=0.263;exitY=0.071;exitDx=0;exitDy=0;exitPerimeter=0;entryX=0.5;entryY=1;entryDx=0;entryDy=0;" edge="1" parent="1" source="52nS1y-p0WzkzDX7R_8c-54" target="52nS1y-p0WzkzDX7R_8c-57">
          <mxGeometry width="50" height="50" relative="1" as="geometry">
            <mxPoint x="587" y="209" as="sourcePoint" />
            <mxPoint x="599" y="186" as="targetPoint" />
          </mxGeometry>
        </mxCell>
        <mxCell id="52nS1y-p0WzkzDX7R_8c-86" value="" style="endArrow=none;html=1;rounded=0;exitX=0.641;exitY=0.019;exitDx=0;exitDy=0;exitPerimeter=0;entryX=0.256;entryY=0.938;entryDx=0;entryDy=0;entryPerimeter=0;" edge="1" parent="1" source="52nS1y-p0WzkzDX7R_8c-54">
          <mxGeometry width="50" height="50" relative="1" as="geometry">
            <mxPoint x="604" y="163.07999999999998" as="sourcePoint" />
            <mxPoint x="623.24" y="137.495" as="targetPoint" />
          </mxGeometry>
        </mxCell>
        <mxCell id="52nS1y-p0WzkzDX7R_8c-87" value="" style="endArrow=none;html=1;rounded=0;exitX=1;exitY=0;exitDx=0;exitDy=0;entryX=0.096;entryY=0.816;entryDx=0;entryDy=0;entryPerimeter=0;" edge="1" parent="1" source="52nS1y-p0WzkzDX7R_8c-54" target="52nS1y-p0WzkzDX7R_8c-59">
          <mxGeometry width="50" height="50" relative="1" as="geometry">
            <mxPoint x="625" y="161" as="sourcePoint" />
            <mxPoint x="633.24" y="147.495" as="targetPoint" />
          </mxGeometry>
        </mxCell>
        <mxCell id="52nS1y-p0WzkzDX7R_8c-89" value="" style="endArrow=none;html=1;rounded=0;exitX=1;exitY=0.5;exitDx=0;exitDy=0;entryX=0;entryY=0.5;entryDx=0;entryDy=0;" edge="1" parent="1" source="52nS1y-p0WzkzDX7R_8c-54" target="52nS1y-p0WzkzDX7R_8c-60">
          <mxGeometry width="50" height="50" relative="1" as="geometry">
            <mxPoint x="642" y="164" as="sourcePoint" />
            <mxPoint x="658" y="152" as="targetPoint" />
          </mxGeometry>
        </mxCell>
        <mxCell id="52nS1y-p0WzkzDX7R_8c-90" value="" style="endArrow=none;html=1;rounded=0;exitX=1;exitY=0.5;exitDx=0;exitDy=0;" edge="1" parent="1" source="52nS1y-p0WzkzDX7R_8c-14" target="52nS1y-p0WzkzDX7R_8c-55">
          <mxGeometry width="50" height="50" relative="1" as="geometry">
            <mxPoint x="554" y="278" as="sourcePoint" />
            <mxPoint x="554" y="240" as="targetPoint" />
          </mxGeometry>
        </mxCell>
        <mxCell id="52nS1y-p0WzkzDX7R_8c-91" value="" style="endArrow=none;html=1;rounded=0;exitX=0.541;exitY=-0.001;exitDx=0;exitDy=0;entryX=0.5;entryY=1;entryDx=0;entryDy=0;exitPerimeter=0;" edge="1" parent="1" source="52nS1y-p0WzkzDX7R_8c-55" target="52nS1y-p0WzkzDX7R_8c-44">
          <mxGeometry width="50" height="50" relative="1" as="geometry">
            <mxPoint x="594" y="293" as="sourcePoint" />
            <mxPoint x="644" y="291" as="targetPoint" />
          </mxGeometry>
        </mxCell>
        <mxCell id="52nS1y-p0WzkzDX7R_8c-92" value="" style="endArrow=none;html=1;rounded=0;exitX=1;exitY=0;exitDx=0;exitDy=0;entryX=0;entryY=0.5;entryDx=0;entryDy=0;" edge="1" parent="1" source="52nS1y-p0WzkzDX7R_8c-55" target="52nS1y-p0WzkzDX7R_8c-45">
          <mxGeometry width="50" height="50" relative="1" as="geometry">
            <mxPoint x="698" y="271" as="sourcePoint" />
            <mxPoint x="704" y="256" as="targetPoint" />
          </mxGeometry>
        </mxCell>
        <mxCell id="52nS1y-p0WzkzDX7R_8c-93" value="" style="endArrow=none;html=1;rounded=0;exitX=1;exitY=1;exitDx=0;exitDy=0;entryX=0.5;entryY=0;entryDx=0;entryDy=0;" edge="1" parent="1" source="52nS1y-p0WzkzDX7R_8c-14" target="52nS1y-p0WzkzDX7R_8c-46">
          <mxGeometry width="50" height="50" relative="1" as="geometry">
            <mxPoint x="594" y="293" as="sourcePoint" />
            <mxPoint x="644" y="291" as="targetPoint" />
          </mxGeometry>
        </mxCell>
        <mxCell id="52nS1y-p0WzkzDX7R_8c-95" value="contiene" style="strokeWidth=2;html=1;shape=mxgraph.flowchart.decision;whiteSpace=wrap;" vertex="1" parent="1">
          <mxGeometry x="501.5" y="343.75" width="85" height="42.5" as="geometry" />
        </mxCell>
        <mxCell id="52nS1y-p0WzkzDX7R_8c-96" value="" style="endArrow=none;html=1;rounded=0;exitX=0.5;exitY=0;exitDx=0;exitDy=0;entryX=0.25;entryY=1;entryDx=0;entryDy=0;" edge="1" parent="1" source="52nS1y-p0WzkzDX7R_8c-7" target="52nS1y-p0WzkzDX7R_8c-1">
          <mxGeometry relative="1" as="geometry">
            <mxPoint x="150" y="346" as="sourcePoint" />
            <mxPoint x="172" y="312" as="targetPoint" />
          </mxGeometry>
        </mxCell>
        <mxCell id="52nS1y-p0WzkzDX7R_8c-97" value="" style="endArrow=none;html=1;rounded=0;exitX=0.5;exitY=0;exitDx=0;exitDy=0;entryX=0.5;entryY=1;entryDx=0;entryDy=0;exitPerimeter=0;" edge="1" parent="1" source="52nS1y-p0WzkzDX7R_8c-95" target="52nS1y-p0WzkzDX7R_8c-14">
          <mxGeometry relative="1" as="geometry">
            <mxPoint x="165" y="360" as="sourcePoint" />
            <mxPoint x="185" y="313" as="targetPoint" />
          </mxGeometry>
        </mxCell>
        <mxCell id="52nS1y-p0WzkzDX7R_8c-98" value="" style="endArrow=none;html=1;rounded=0;exitX=0.5;exitY=0;exitDx=0;exitDy=0;entryX=0.5;entryY=1;entryDx=0;entryDy=0;entryPerimeter=0;" edge="1" parent="1" source="52nS1y-p0WzkzDX7R_8c-8" target="52nS1y-p0WzkzDX7R_8c-95">
          <mxGeometry relative="1" as="geometry">
            <mxPoint x="554" y="354" as="sourcePoint" />
            <mxPoint x="554" y="308" as="targetPoint" />
          </mxGeometry>
        </mxCell>
        <mxCell id="52nS1y-p0WzkzDX7R_8c-99" value="" style="endArrow=none;html=1;rounded=0;exitX=0.79;exitY=0.987;exitDx=0;exitDy=0;exitPerimeter=0;entryX=0;entryY=0;entryDx=0;entryDy=0;" edge="1" parent="1" source="52nS1y-p0WzkzDX7R_8c-8" target="52nS1y-p0WzkzDX7R_8c-12">
          <mxGeometry width="50" height="50" relative="1" as="geometry">
            <mxPoint x="680" y="530" as="sourcePoint" />
            <mxPoint x="730" y="480" as="targetPoint" />
          </mxGeometry>
        </mxCell>
        <mxCell id="52nS1y-p0WzkzDX7R_8c-100" value="" style="endArrow=none;html=1;rounded=0;exitX=1;exitY=0.5;exitDx=0;exitDy=0;entryX=0;entryY=0.5;entryDx=0;entryDy=0;" edge="1" parent="1" source="52nS1y-p0WzkzDX7R_8c-8" target="52nS1y-p0WzkzDX7R_8c-9">
          <mxGeometry width="50" height="50" relative="1" as="geometry">
            <mxPoint x="578" y="471" as="sourcePoint" />
            <mxPoint x="602" y="484" as="targetPoint" />
          </mxGeometry>
        </mxCell>
        <mxCell id="52nS1y-p0WzkzDX7R_8c-101" value="" style="endArrow=none;html=1;rounded=0;exitX=0.894;exitY=-0.027;exitDx=0;exitDy=0;entryX=0;entryY=1;entryDx=0;entryDy=0;exitPerimeter=0;" edge="1" parent="1" source="52nS1y-p0WzkzDX7R_8c-8" target="52nS1y-p0WzkzDX7R_8c-10">
          <mxGeometry width="50" height="50" relative="1" as="geometry">
            <mxPoint x="594" y="455" as="sourcePoint" />
            <mxPoint x="634" y="455" as="targetPoint" />
          </mxGeometry>
        </mxCell>
        <mxCell id="52nS1y-p0WzkzDX7R_8c-102" value="" style="endArrow=none;html=1;rounded=0;exitX=0.5;exitY=0;exitDx=0;exitDy=0;entryX=0.5;entryY=1;entryDx=0;entryDy=0;exitPerimeter=0;" edge="1" parent="1" source="52nS1y-p0WzkzDX7R_8c-37" target="52nS1y-p0WzkzDX7R_8c-8">
          <mxGeometry relative="1" as="geometry">
            <mxPoint x="554" y="440" as="sourcePoint" />
            <mxPoint x="554" y="396" as="targetPoint" />
          </mxGeometry>
        </mxCell>
        <mxCell id="52nS1y-p0WzkzDX7R_8c-103" value="existencias" style="ellipse;whiteSpace=wrap;html=1;" vertex="1" parent="1">
          <mxGeometry x="384" y="532.5" width="76" height="35" as="geometry" />
        </mxCell>
        <mxCell id="52nS1y-p0WzkzDX7R_8c-104" value="" style="endArrow=none;html=1;rounded=0;exitX=0;exitY=0.5;exitDx=0;exitDy=0;entryX=1;entryY=0.5;entryDx=0;entryDy=0;exitPerimeter=0;" edge="1" parent="1" source="52nS1y-p0WzkzDX7R_8c-37" target="52nS1y-p0WzkzDX7R_8c-103">
          <mxGeometry relative="1" as="geometry">
            <mxPoint x="554" y="530" as="sourcePoint" />
            <mxPoint x="554" y="470" as="targetPoint" />
          </mxGeometry>
        </mxCell>
        <mxCell id="52nS1y-p0WzkzDX7R_8c-105" value="" style="endArrow=none;html=1;rounded=0;exitX=0;exitY=0.5;exitDx=0;exitDy=0;entryX=1;entryY=0.5;entryDx=0;entryDy=0;" edge="1" parent="1" source="52nS1y-p0WzkzDX7R_8c-35" target="52nS1y-p0WzkzDX7R_8c-61">
          <mxGeometry relative="1" as="geometry">
            <mxPoint x="502" y="520" as="sourcePoint" />
            <mxPoint x="465" y="520" as="targetPoint" />
          </mxGeometry>
        </mxCell>
        <mxCell id="52nS1y-p0WzkzDX7R_8c-106" value="" style="endArrow=none;html=1;rounded=0;entryX=0.5;entryY=1;entryDx=0;entryDy=0;" edge="1" parent="1">
          <mxGeometry relative="1" as="geometry">
            <mxPoint x="544" y="600" as="sourcePoint" />
            <mxPoint x="543.58" y="580" as="targetPoint" />
          </mxGeometry>
        </mxCell>
        <mxCell id="52nS1y-p0WzkzDX7R_8c-107" value="" style="endArrow=none;html=1;rounded=0;entryX=0.657;entryY=0;entryDx=0;entryDy=0;entryPerimeter=0;" edge="1" parent="1" target="52nS1y-p0WzkzDX7R_8c-50">
          <mxGeometry relative="1" as="geometry">
            <mxPoint x="515" y="630" as="sourcePoint" />
            <mxPoint x="548.58" y="550" as="targetPoint" />
          </mxGeometry>
        </mxCell>
        <mxCell id="52nS1y-p0WzkzDX7R_8c-108" value="" style="endArrow=none;html=1;rounded=0;entryX=0.5;entryY=0;entryDx=0;entryDy=0;exitX=0.5;exitY=1;exitDx=0;exitDy=0;" edge="1" parent="1" source="52nS1y-p0WzkzDX7R_8c-35" target="52nS1y-p0WzkzDX7R_8c-51">
          <mxGeometry relative="1" as="geometry">
            <mxPoint x="525" y="640" as="sourcePoint" />
            <mxPoint x="485" y="660" as="targetPoint" />
          </mxGeometry>
        </mxCell>
        <mxCell id="52nS1y-p0WzkzDX7R_8c-109" value="(1 : 1)" style="text;html=1;align=center;verticalAlign=middle;resizable=0;points=[];autosize=1;strokeColor=none;fillColor=none;" vertex="1" parent="1">
          <mxGeometry x="584" y="350" width="50" height="30" as="geometry" />
        </mxCell>
        <mxCell id="52nS1y-p0WzkzDX7R_8c-110" value="(1 : N)" style="text;html=1;align=center;verticalAlign=middle;resizable=0;points=[];autosize=1;strokeColor=none;fillColor=none;" vertex="1" parent="1">
          <mxGeometry x="366.5" y="232.5" width="60" height="30" as="geometry" />
        </mxCell>
        <mxCell id="52nS1y-p0WzkzDX7R_8c-111" value="&lt;b&gt;&lt;font style=&quot;font-size: 24px;&quot;&gt;Problema 1: Artículos y encargos&lt;/font&gt;&lt;/b&gt;&lt;div&gt;&lt;br&gt;&lt;/div&gt;" style="text;html=1;align=center;verticalAlign=middle;whiteSpace=wrap;rounded=0;" vertex="1" parent="1">
          <mxGeometry x="221" y="40" width="386" height="30" as="geometry" />
        </mxCell>
      </root>
    </mxGraphModel>
  </diagram>
</mxfile>
